<?xml version="1.0" standalone="no"?>
<!DOCTYPE svg PUBLIC "-//W3C//DTD SVG 20010904//EN"
 "http://www.w3.org/TR/2001/REC-SVG-20010904/DTD/svg10.dtd">
<svg version="1.0" xmlns="http://www.w3.org/2000/svg"
 width="154.000000pt" height="154.000000pt" viewBox="0 0 154.000000 154.000000"
 preserveAspectRatio="xMidYMid meet">
<metadata>
Created by potrace 1.14, written by Peter Selinger 2001-2017
</metadata>
<g transform="translate(0.000000,154.000000) scale(0.100000,-0.100000)"
fill="#000000" stroke="none">
<path d="M721 1528 c-81 -18 -201 -103 -201 -143 0 -8 -4 -15 -9 -15 -9 0 -21
-30 -26 -62 -1 -10 -4 -19 -5 -20 -1 -2 -3 -49 -4 -105 -1 -56 -4 -105 -7
-108 -4 -3 -55 -7 -115 -8 -129 -4 -182 -23 -245 -88 -47 -49 -71 -94 -89
-166 -13 -52 -10 -81 20 -158 4 -11 9 -24 11 -30 4 -13 17 -29 57 -72 80 -85
229 -111 331 -59 17 9 31 13 32 9 0 -5 2 -64 3 -133 2 -69 8 -136 13 -150 6
-14 11 -28 12 -33 6 -48 79 -121 159 -159 54 -26 71 -30 125 -26 59 4 147 34
147 50 0 5 7 8 16 8 8 0 12 5 9 10 -3 6 0 10 8 10 13 0 76 79 81 103 2 7 7 21
11 32 5 11 9 70 9 132 1 62 3 113 6 114 3 1 55 2 116 4 104 2 115 4 172 35 59
31 138 110 125 124 -4 3 -2 6 4 6 5 0 18 30 28 66 15 57 16 73 5 122 -13 57
-27 91 -45 104 -5 4 -7 8 -3 8 13 0 -35 51 -76 81 -21 16 -42 26 -47 23 -5 -3
-9 -1 -9 4 0 12 -42 24 -100 27 -45 3 -135 -18 -157 -37 -7 -6 -13 -9 -14 -7
0 2 -2 63 -3 134 -3 145 -8 172 -44 230 -64 104 -194 166 -301 143z m129 -159
c68 -39 97 -128 66 -203 -12 -28 -66 -94 -66 -80 0 2 -8 0 -19 -5 -16 -9 -110
-15 -194 -12 l-29 1 4 108 c3 94 6 111 27 143 32 47 65 65 124 68 34 1 59 -4
87 -20z m75 -757 c-3 -3 -54 -6 -113 -8 -86 -1 -117 -6 -151 -22 -30 -15 -43
-17 -46 -9 -3 7 -4 89 -2 182 l2 170 105 2 c78 1 118 6 155 21 l50 20 3 -176
c1 -96 0 -177 -3 -180z m-452 224 c0 -50 -2 -98 -2 -106 -1 -23 -53 -100 -63
-94 -4 3 -8 1 -8 -4 0 -13 -61 -29 -104 -26 -152 11 -193 234 -55 302 32 16
60 20 137 20 l97 0 -2 -92z m803 82 c3 -5 9 -6 14 -3 10 6 50 -29 75 -68 17
-27 29 -137 14 -137 -4 0 -9 -11 -13 -24 -3 -12 -24 -36 -46 -51 -38 -26 -49
-29 -143 -30 -56 -1 -104 2 -108 7 -3 4 -4 51 -2 103 4 126 23 164 103 202 28
13 98 14 106 1z m-352 -558 c0 -58 -3 -113 -5 -122 -7 -24 -59 -78 -76 -78 -7
0 -13 -4 -13 -9 0 -7 -67 -9 -117 -2 -19 2 -71 50 -86 80 -17 35 -16 118 2
151 14 24 48 56 82 75 10 6 62 10 116 10 l98 0 -1 -105z"/>
</g>
</svg>
