<svg xmlns="http://www.w3.org/2000/svg" width="34.149" height="26.555" viewBox="0 0 34.149 26.555">
  <defs>
    <style>
      .cls-1 {
        fill: #505050;
      }
    </style>
  </defs>
  <path id="Icon_awesome-home" data-name="Icon awesome-home" class="cls-1" d="M16.621,9.143l-10.93,9V27.86a.949.949,0,0,0,.949.949l6.643-.017a.949.949,0,0,0,.944-.949V22.169a.949.949,0,0,1,.949-.949h3.794a.949.949,0,0,1,.949.949v5.67a.949.949,0,0,0,.949.951l6.641.018a.949.949,0,0,0,.949-.949V18.138l-10.927-9A.723.723,0,0,0,16.621,9.143Zm17.265,6.118-4.956-4.085V2.965a.711.711,0,0,0-.711-.711H24.9a.711.711,0,0,0-.711.711v4.3L18.879,2.9a2.846,2.846,0,0,0-3.616,0L.257,15.261a.711.711,0,0,0-.095,1L1.674,18.1a.711.711,0,0,0,1,.1L16.621,6.712a.723.723,0,0,1,.907,0L31.472,18.2a.711.711,0,0,0,1-.095l1.512-1.838a.711.711,0,0,0-.1-1Z" transform="translate(0.001 -2.254)"/>
</svg>
