<svg xmlns="http://www.w3.org/2000/svg" width="26.331" height="26.331" viewBox="0 0 26.331 26.331">
  <defs>
    <style>
      .cls-1 {
        fill: #002c4d;
      }
    </style>
  </defs>
  <path id="Icon_awesome-plus-circle" data-name="Icon awesome-plus-circle" class="cls-1" d="M13.728.563A13.165,13.165,0,1,0,26.893,13.728,13.163,13.163,0,0,0,13.728.563Zm7.644,14.652a.639.639,0,0,1-.637.637H15.851v4.884a.639.639,0,0,1-.637.637H12.241a.639.639,0,0,1-.637-.637V15.851H6.72a.639.639,0,0,1-.637-.637V12.241A.639.639,0,0,1,6.72,11.6H11.6V6.72a.639.639,0,0,1,.637-.637h2.973a.639.639,0,0,1,.637.637V11.6h4.884a.639.639,0,0,1,.637.637Z" transform="translate(-0.563 -0.563)"/>
</svg>
